<mxfile host="app.diagrams.net" agent="Mozilla/5.0 (Macintosh; Intel Mac OS X 10_15_7) AppleWebKit/537.36 (KHTML, like Gecko) Chrome/134.0.0.0 Safari/537.36" version="26.2.3">
  <diagram name="第 1 页" id="GM00OTjqs9OvvqSmzh-0">
    <mxGraphModel dx="1236" dy="705" grid="1" gridSize="10" guides="1" tooltips="1" connect="1" arrows="1" fold="1" page="1" pageScale="1" pageWidth="827" pageHeight="1169" math="0" shadow="0">
      <root>
        <mxCell id="0" />
        <mxCell id="1" parent="0" />
        <mxCell id="XO_zJswePq4c_CVxiwiD-1" style="edgeStyle=orthogonalEdgeStyle;rounded=0;orthogonalLoop=1;jettySize=auto;html=1;exitX=0.5;exitY=1;exitDx=0;exitDy=0;entryX=0.5;entryY=0;entryDx=0;entryDy=0;" parent="1" source="OP9GRv05zd8Qq3lB0aVC-1" target="XO_zJswePq4c_CVxiwiD-2" edge="1">
          <mxGeometry relative="1" as="geometry">
            <mxPoint x="280" y="340" as="targetPoint" />
            <mxPoint x="200" y="120" as="sourcePoint" />
          </mxGeometry>
        </mxCell>
        <mxCell id="OP9GRv05zd8Qq3lB0aVC-1" value="AIData数据源" style="rounded=1;whiteSpace=wrap;html=1;" parent="1" vertex="1">
          <mxGeometry x="180" y="50" width="120" height="60" as="geometry" />
        </mxCell>
        <mxCell id="XO_zJswePq4c_CVxiwiD-3" style="edgeStyle=orthogonalEdgeStyle;rounded=0;orthogonalLoop=1;jettySize=auto;html=1;entryX=0.5;entryY=0;entryDx=0;entryDy=0;" parent="1" source="XO_zJswePq4c_CVxiwiD-2" edge="1" target="XO_zJswePq4c_CVxiwiD-4">
          <mxGeometry relative="1" as="geometry">
            <mxPoint x="380" y="460" as="targetPoint" />
          </mxGeometry>
        </mxCell>
        <mxCell id="XO_zJswePq4c_CVxiwiD-2" value="训练数据配方&lt;div&gt;1.领域比例分配&lt;/div&gt;&lt;div&gt;2.质量分层抽样&lt;/div&gt;" style="rounded=1;whiteSpace=wrap;html=1;" parent="1" vertex="1">
          <mxGeometry x="320" y="300" width="120" height="60" as="geometry" />
        </mxCell>
        <mxCell id="XO_zJswePq4c_CVxiwiD-5" style="edgeStyle=orthogonalEdgeStyle;rounded=0;orthogonalLoop=1;jettySize=auto;html=1;entryX=0;entryY=0.5;entryDx=0;entryDy=0;" parent="1" source="XO_zJswePq4c_CVxiwiD-4" edge="1" target="XO_zJswePq4c_CVxiwiD-6">
          <mxGeometry relative="1" as="geometry">
            <mxPoint x="600" y="490" as="targetPoint" />
          </mxGeometry>
        </mxCell>
        <mxCell id="XO_zJswePq4c_CVxiwiD-4" value="训练模型" style="rounded=1;whiteSpace=wrap;html=1;" parent="1" vertex="1">
          <mxGeometry x="320" y="500" width="120" height="60" as="geometry" />
        </mxCell>
        <mxCell id="-XIXAdpVKstCxnmC-5fp-2" style="edgeStyle=orthogonalEdgeStyle;rounded=0;orthogonalLoop=1;jettySize=auto;html=1;entryX=0.5;entryY=1;entryDx=0;entryDy=0;" edge="1" parent="1" source="XO_zJswePq4c_CVxiwiD-6" target="-XIXAdpVKstCxnmC-5fp-1">
          <mxGeometry relative="1" as="geometry" />
        </mxCell>
        <mxCell id="XO_zJswePq4c_CVxiwiD-6" value="自动化指标计算&lt;br&gt;&lt;div&gt;人工评估质量&lt;/div&gt;" style="rounded=1;whiteSpace=wrap;html=1;" parent="1" vertex="1">
          <mxGeometry x="610" y="500" width="120" height="60" as="geometry" />
        </mxCell>
        <mxCell id="-XIXAdpVKstCxnmC-5fp-4" style="edgeStyle=orthogonalEdgeStyle;rounded=0;orthogonalLoop=1;jettySize=auto;html=1;entryX=0.5;entryY=1;entryDx=0;entryDy=0;" edge="1" parent="1" source="-XIXAdpVKstCxnmC-5fp-1" target="-XIXAdpVKstCxnmC-5fp-3">
          <mxGeometry relative="1" as="geometry" />
        </mxCell>
        <mxCell id="-XIXAdpVKstCxnmC-5fp-7" style="edgeStyle=orthogonalEdgeStyle;rounded=0;orthogonalLoop=1;jettySize=auto;html=1;exitX=0.5;exitY=0;exitDx=0;exitDy=0;" edge="1" parent="1" source="-XIXAdpVKstCxnmC-5fp-1" target="-XIXAdpVKstCxnmC-5fp-6">
          <mxGeometry relative="1" as="geometry" />
        </mxCell>
        <mxCell id="-XIXAdpVKstCxnmC-5fp-1" value="评测结果分析" style="rounded=1;whiteSpace=wrap;html=1;" vertex="1" parent="1">
          <mxGeometry x="610" y="390" width="120" height="60" as="geometry" />
        </mxCell>
        <mxCell id="-XIXAdpVKstCxnmC-5fp-5" style="edgeStyle=orthogonalEdgeStyle;rounded=0;orthogonalLoop=1;jettySize=auto;html=1;entryX=1;entryY=0.5;entryDx=0;entryDy=0;" edge="1" parent="1" source="-XIXAdpVKstCxnmC-5fp-3" target="XO_zJswePq4c_CVxiwiD-2">
          <mxGeometry relative="1" as="geometry" />
        </mxCell>
        <mxCell id="-XIXAdpVKstCxnmC-5fp-3" value="数据配方优化" style="rounded=1;whiteSpace=wrap;html=1;" vertex="1" parent="1">
          <mxGeometry x="500" y="240" width="120" height="60" as="geometry" />
        </mxCell>
        <mxCell id="-XIXAdpVKstCxnmC-5fp-8" style="edgeStyle=orthogonalEdgeStyle;rounded=0;orthogonalLoop=1;jettySize=auto;html=1;entryX=1;entryY=0.5;entryDx=0;entryDy=0;exitX=0.5;exitY=0;exitDx=0;exitDy=0;" edge="1" parent="1" source="-XIXAdpVKstCxnmC-5fp-6" target="OP9GRv05zd8Qq3lB0aVC-1">
          <mxGeometry relative="1" as="geometry" />
        </mxCell>
        <mxCell id="-XIXAdpVKstCxnmC-5fp-6" value="新增数据采集&lt;div&gt;补充薄弱领域&lt;/div&gt;" style="rounded=1;whiteSpace=wrap;html=1;" vertex="1" parent="1">
          <mxGeometry x="690" y="240" width="120" height="60" as="geometry" />
        </mxCell>
      </root>
    </mxGraphModel>
  </diagram>
</mxfile>
